<?xml version="1.0" encoding="utf-8"?>
<!-- Generator: Adobe Illustrator 18.0.0, SVG Export Plug-In . SVG Version: 6.00 Build 0)  -->
<!DOCTYPE svg PUBLIC "-//W3C//DTD SVG 1.1//EN" "http://www.w3.org/Graphics/SVG/1.1/DTD/svg11.dtd">
<svg version="1.1" id="cd-logo" xmlns="http://www.w3.org/2000/svg" xmlns:xlink="http://www.w3.org/1999/xlink" x="0px" y="0px"
	 width="248px" height="46px" viewBox="0 0 248 46" xml:space="preserve">
<g>
	<path d="M23.1,26.1c0.3,0.1,0.5,0.2,0.8,0.2c0.4,0,0.5,0.2,0.7,0.6c0.6,1.3,0.3,2.7,0.3,4c0,3.3-0.1,6.6-0.2,9.9
		c0,0.6-0.1,1.2-0.2,1.8c0,0.1,0,0.2-0.1,0.2c-0.1,0.1-0.2,0.2-0.3,0.4c-0.1-0.1-0.3-0.2-0.3-0.4c-0.1-0.6-0.3-1.2-0.3-1.8
		c-0.3-3.3-0.6-6.6-0.8-9.9c-0.1-1.8-0.2-3.6-0.2-5.6C22.7,25.7,22.9,25.9,23.1,26.1L23.1,26.1z"/>
	<path d="M27.9,12c0.3-0.1,0.2,0.2,0.1,0.3c-0.5,1.8-1.6,3.3-3.2,4.2c-1.5,0.8-3.1,1-4.7,1.1c-1.9,0.1-3.7,0-5.6,0.1
		c-0.5,0-0.9,0-1.4,0c-1.8,0-3.2,0.9-4.3,2.3c-0.1,0.1-0.2,0.2-0.3,0.3c-0.2-1.9,1.9-4.7,3.6-4.7c-0.1,0.2-0.2,0.3-0.3,0.5
		c0.2,0,0.4,0.1,0.5,0c3.1,0,6.1-0.1,9.2-0.1c1.5,0,2.7-0.6,3.8-1.5c0.8-0.6,1.7-1.2,2.2-2.2C27.8,12.2,27.9,12.1,27.9,12L27.9,12z"
		/>
	<path d="M25.7,19.4c-0.2,0.4-0.3,0.6-0.4,0.9l0.1,0.1c0.5-0.3,0.9-0.7,1.4-1c0,0,0,0,0-0.1c-0.1,0-0.2,0.1-0.3,0.1l-0.1-0.1
		c0.4-0.3,0.7-0.7,1.1-1l0.1,0.1c-0.1,0.1-0.1,0.2-0.2,0.4c0.3-0.2,0.5-0.2,0.6-0.3l0.1,0.1c-0.2,0.1-0.4,0.3-0.5,0.4
		c-0.3,0.3-0.6,0.7-0.8,1.1c-0.1,0.1-0.2,0.3-0.3,0.3c-0.3,0.1-0.4,0.3-0.2,0.6c0.1,0.2,0.3,0.3,0.6,0.1c-0.1-0.1-0.2-0.2-0.3-0.2
		c0.2-0.2,0.4-0.3,0.6-0.4s0.3-0.3,0.5-0.3c1-0.3,2-0.4,3-0.3c-0.6,0.1-1.2,0.2-1.9,0.3v0.1c1.5-0.1,3,0.1,4.4,0.8
		c0,0,0-0.1,0.1-0.1c-0.3-0.2-0.6-0.4-0.8-0.7c1.1,0.4,1.6,0.8,1.4,1.5c-0.3-0.2-0.6-0.4-1-0.6v0.1c0.3,0.3,0.6,0.6,0.9,0.8
		c0.1,0.1,0.3-0.1,0.6-0.1c0,0.1,0.1,0.2,0.1,0.4c-0.1,1-0.5,1.9-1.5,2.4c-0.7,0.3-1.4,0.6-2.1,0.7c-1.5,0.3-2.9,0.3-4.4,0
		c-1.2-0.3-2.2-0.9-2.5-2.3C23.6,21.7,24.4,20.1,25.7,19.4z M27.2,24.5c1,0.5,2.1,0.5,3.1,0.3v-0.1c-0.3,0-0.5,0-0.9-0.1
		c1-0.2,1.8-0.4,2.7-0.6C32,24.2,32,24.3,32,24.4c0,0,0.1,0,0.1,0.1c0.2-0.2,0.4-0.4,0.7-0.7c-0.3-0.1-0.4-0.1-0.5-0.1
		c0.1-0.3,0.2-0.6,0.2-0.9c0-0.5-0.4-0.9-0.8-1.1c-1.5-0.8-3-0.8-4.4,0c-0.5,0.3-0.9,0.7-0.8,1.3c-0.4,0-0.5,0.2-0.4,0.6
		c0.2,0.6,0.6,0.9,1.1,1.2C27.1,24.6,27.2,24.5,27.2,24.5L27.2,24.5z"/>
	<path d="M43.5,30.1c-3.1-0.6-6.1-1.1-9.2-1.3c-3-0.2-6.1-0.3-9.2-0.4c0-0.1,0-0.3,0-0.5c0.6,0,1.1,0,1.7,0c0,0,0,0,0-0.1
		c-0.5,0-1-0.1-1.7-0.1c0.3-0.1,0.5-0.3,0.8-0.3c1.1-0.1,2.2-0.3,3.3-0.4c0.1,0,0.3,0,0.4,0v0.1c-0.3,0.1-0.7,0.1-1,0.2
		c3.5,0,6.9,0.4,10.3,0.8V28c-1.4-0.2-2.7-0.5-4-0.7c1.9-0.2,7.4,1,8.2,1.9c-0.6-0.1-1.3-0.3-1.9-0.4c0,0,0,0,0,0.1
		c1,0.2,2,0.6,3,0.7c0.6,0,1,0.3,1.3,0.8 M27.5,27.8c3.7-0.3,7.3,0.1,11,0.5C34.8,27.8,31.2,27.3,27.5,27.8z"/>
	<path d="M27.9,12c-0.1,0-0.1,0.1-0.2,0.2c0-0.1,0-0.2,0-0.4c-0.8,1.3-2,2-3.2,2.6c1.2-1,2.4-1.9,3.3-3.3c-1.2,0-2.4,0-3.5,0
		c0-0.6,0-1.2,0-1.7c0.3,0,0.5-0.1,0.6,0.3c0.1,0.4,0.4,0.3,0.6,0.3c1.8,0,3.6,0,5.5,0.1c0.8,0,1.6,0,2.4,0c0.4,0,0.7-0.1,0.9-0.4
		c0,0.2,0,0.3,0,0.5c0,1.5,0,3-0.1,4.4c0,1.6-0.8,2.7-2.2,3.3c-0.7,0.3-1.7,0.4-2.6,0.4c0.3-0.1,0.5-0.2,0.7-0.3
		c0.6-0.5,1.3-0.9,1.9-1.4c0.4-0.4,0.6-0.9,0.6-1.5c0-1.2,0-2.5,0-3.8c-1.4,0-2.8,0-4.3,0C28.2,11.4,28.1,11.7,27.9,12L27.9,12z"/>
	<path d="M8.4,28.8c1.6,0.3,3.2,0.5,4.8,0.8c0,0,0,0,0,0.1c-1.7-0.3-3.5-0.5-5.2-0.8c-0.9-0.2-1.8-0.4-2.7-0.6
		c-0.4-0.1-0.7-0.3-1-0.5v-0.1c0.1,0,0.2,0,0.3-0.1v-0.1c-0.5-0.1-1.1-0.2-1.6-0.2c-0.1,0-0.2,0.3-0.3,0.6c-0.2-0.3-0.3-0.6-0.4-0.8
		c-0.1-0.2-0.3-0.4-0.5-0.7c6.8,1.3,13.6,2.2,20.5,1.9c0,0.3,0,0.4,0,0.7c-0.5,0-0.9,0-1.3,0l0,0c0.2,0,0.4,0.1,0.6,0.1
		s0.4,0,0.7,0.1c-0.3,0.1-0.6,0.3-0.9,0.3c-1,0.1-2,0.2-3,0.4c-0.2,0-0.4,0-0.6,0v-0.1c0.4-0.1,0.8-0.2,1.2-0.2
		c-3.5,0-7-0.4-10.4-0.8C8.4,28.7,8.4,28.8,8.4,28.8z M15.7,29.2c1.1,0,2.2,0,3.3,0v-0.1C17.9,29.1,16.8,29.2,15.7,29.2
		c-0.2,0-0.3-0.1-0.5-0.1c-1.3-0.1-2.6-0.2-4-0.4c-1-0.1-1.9-0.3-2.9-0.4c1.4,0.3,2.7,0.5,4.1,0.6C13.5,29.1,14.6,29.1,15.7,29.2z"
		/>
	<path d="M13.4,19c0.6-0.5,1.2-0.2,1.7-0.2c0,0.2,0.1,0.3,0.1,0.3c0.3,0.1,0.5,0.1,0.8,0.1c2.2,0.1,1.6-0.2,3.2,1.3
		c0.8,0.8,1.6,1.5,2.5,2.3c0.2,0.2,0.4,0.2,0.7,0.4c0,0.4,0,0.9,0,1.6c-0.7,0-1.4,0-2.1,0c-0.2,0-0.3-0.2-0.4-0.3
		c-1.6-1.5-3.3-3-4.9-4.5c-0.4-0.3-0.7-0.7-1.2-0.7C13.7,19.2,13.6,19.1,13.4,19z"/>
	<path d="M24.2,11.7c0.1,0.3-0.2,0.5-0.5,0.5c-0.6,0.1-1.1,0.1-1.7,0.1c-2,0-4-0.1-6-0.1c-0.8,0-1.6,0.2-2.4,0.4
		c-0.6,0.2-1.1,0.1-1.2-0.3c-0.2-0.5,0-1.3,0.5-1.5c0.3-0.1,0.6-0.2,0.9-0.2c0.7,0,1.5,0.1,2.2,0.1c0.5,0,1.1,0,1.6-0.1v0.1
		c-0.2,0.1-0.4,0.2-0.6,0.3C19.4,11.4,21.8,11,24.2,11.7z M14.5,10.9c0,0.1,0,0.1,0,0.2c0.5,0,1,0.1,1.5,0.1c0-0.1,0-0.1,0-0.2
		C15.5,11,15,10.9,14.5,10.9z"/>
	<path d="M18.6,8c-0.1,0.1-0.1,0.2-0.2,0.4c0.2,0.1,0.3,0.1,0.4,0.2c0.3,0.2,0.6,0.4,0.9,0.6c0.1,0.1,0.3,0.2,0.4,0.3
		s0.2,0.2,0.2,0.4c0,0.1-0.2,0.2-0.3,0.2c-0.9,0-1.8,0-2.7,0c-0.1,0-0.3-0.1-0.3-0.2c-0.2-0.5,0.2-1.6,0.6-1.8
		c0.3-0.2,0.7-0.2,1-0.3C18.6,7.9,18.6,8,18.6,8z"/>
	<path d="M23.4,15.2c-0.3,0.4-0.8,0.5-1.2,0.5c-2.7,0.1-5.4,0.2-8.1,0.1C17.2,15.3,20.3,15.1,23.4,15.2z"/>
	<path d="M14.8,20.3c0.2,0.4,0.4,0.8,0.6,1.2c0,0,0.1,0,0.1-0.1c0,0.6,0,1.2,0,1.8c0,0.1,0,0.2,0,0.3c-0.4,0.4,0,0.6,0.2,0.7
		c0.3,0.2,0.7,0.2,1,0.3c-0.3,0.2-2.9,0.2-3.3-0.1c0.2-0.1,0.4-0.2,0.6-0.3c0.5-0.2,0.7-0.5,0.7-1C14.7,22.2,14.7,21.3,14.8,20.3
		L14.8,20.3C14.8,20.4,14.8,20.3,14.8,20.3z"/>
	<path d="M22.3,19.2c0.4-0.1,0.8-0.2,1.3-0.3c-0.1,0.1-0.1,0.2-0.2,0.2c-0.8,0.2-1.1,0.6-1,1.6c-0.1-0.2-0.1-0.2-0.2-0.3h-0.1
		c0.1,0.5,0.2,1,0.3,1.5c-0.7-0.3-0.9-0.6-0.9-1.2c0-0.2,0-0.3,0-0.5c0-0.7-0.1-0.9-0.8-1.1c-0.1,0-0.2,0-0.2-0.1
		c-0.1,0-0.1-0.1-0.1-0.2s0.1-0.2,0.2-0.2c0.8,0,1.5,0,2.4,0c-0.3,0.1-0.5,0.2-0.7,0.3C22.2,19.1,22.3,19.1,22.3,19.2z"/>
	<path d="M16.6,12.7c-0.1,0.1-0.1,0.2-0.2,0.4c0.3,0.1,0.6,0.2,0.9,0.4c0.1,0.4,0.1,0.8,0.2,1.3c0,0.1,0,0.2-0.1,0.2
		c-0.4,0-0.9,0.2-1.1,0c-0.5-0.4-0.8-1-0.8-1.7c0-0.4,0.1-0.5,0.5-0.5C16.1,12.7,16.4,12.7,16.6,12.7z"/>
	<path d="M21.6,13.3c-0.4,1.1-0.8,1.6-2,1.4c0.1-0.6,0.3-1.3,0.4-2c0.3-0.1,0.5-0.1,0.6,0.3C20.8,13.6,21.2,13.4,21.6,13.3z"/>
	<path d="M23.1,26.1c-0.1-0.2-0.2-0.3-0.3-0.5c0.5,0,0.9,0,1.4,0v0.1c-0.3,0-0.6,0.1-0.9,0.1c0.4,0.3,1.1,0.2,1.4,0
		c0,0,0,0.1,0.1,0.1c-0.2,0.1-0.3,0.2-0.5,0.2C23.9,26.2,23.5,26.1,23.1,26.1L23.1,26.1z"/>
	<path d="M27.2,24.5c-0.5-0.1-0.8-0.4-0.9-0.9c0-0.1,0-0.2,0-0.3c0.1,0,0.2,0,0.3,0.1c0.2,0.1,0.3,0.2,0.4,0.3l-0.1,0.1
		c-0.1,0-0.2,0-0.4,0C26.8,24.1,27,24.3,27.2,24.5L27.2,24.5z"/>
	<path d="M28.6,3.9c0-0.4,0-0.8,0-1.2h-0.1c-0.2,0.4-0.4,0.8-0.6,1.2c-0.5-0.1-1.1-0.2-1.6-0.4c0-0.6-0.1-1.3-0.2-2
		c0.1,0,0.3,0,0.6-0.1c-0.2-0.3-0.4-0.5-0.6-0.8c0.4,0,0.7,0,1.1,0c-0.1-0.2-0.1-0.3-0.2-0.4c0.4,0.1,0.8,0.3,1.2,0.4
		c0,0.1-0.1,0.2-0.1,0.3c0.3,0.1,0.5,0.2,0.7,0.3c-0.2,0.2-0.4,0.4-0.6,0.6c0.2,0.1,0.4,0.2,0.5,0.3c0.2-0.1,0.4-0.2,0.6-0.4
		c-0.1-0.2-0.2-0.4-0.4-0.7c0.7,0.2,1.4,0.2,2,0.5c0.3,0.1,0.4,0.5,0.6,0.8c-0.1,0.1-0.2,0.2-0.3,0.3c-0.4,0.2-0.7,0.5-0.4,1
		c0,0.1,0,0.3-0.1,0.3c-0.2,0.3-0.5,0.5-0.7,0.7C29.7,4.3,29.2,4.1,28.6,3.9z M30.1,2.3c0.2,0,0.3-0.1,0.6-0.1
		c-0.1-0.2-0.1-0.4-0.2-0.5c-0.2-0.1-0.4,0-0.6,0C30,1.9,30,2,30.1,2.1c-0.3,0.1-0.5,0.2-0.8,0.3v0.1c0.4,0.1,0.8,0.1,1.3,0.2
		C30.3,2.6,30.2,2.5,30.1,2.3z M26.6,1.7c0,0.1,0,0.2,0,0.3c0.7,0.1,1.4,0.2,2.1,0.4c0-0.1,0-0.1,0-0.2C28,2,27.3,1.9,26.6,1.7z
		 M29.3,3.1c-0.1,0.5,0,0.7,0.6,0.7c0.1,0,0.3-0.1,0.3-0.2c0,0-0.1-0.2-0.2-0.3C29.7,3.2,29.5,3.1,29.3,3.1z M27.3,1.6
		c0.2-0.1,0.4-0.3,0.6-0.4V1.1c-0.2,0-0.5-0.1-0.6-0.1C27.3,1.1,27.3,1.3,27.3,1.6z M27.6,3.3c0-0.1,0-0.1,0-0.2
		c-0.1,0-0.3-0.1-0.5-0.1c-0.1,0-0.2,0.1-0.3,0.2c0,0,0,0.1,0.1,0.1C27.1,3.3,27.4,3.3,27.6,3.3z M27.9,2.5c-0.4,0-0.7,0-1,0
		C27.2,2.8,27.5,2.8,27.9,2.5z"/>
	<path d="M43.2,15.9c-0.3-0.4-0.6-0.8-0.9-1.2c0.1,0.9,1,1.5,0.4,2.5c-0.2-0.5-0.4-1-0.5-1.5S41.8,15,41.3,15
		c-0.3,0-0.4-0.1-0.5-0.4c-0.1-0.4-0.2-0.7-0.3-1.2c0.3,0.3,0.4,0.5,0.6,0.7c0.2-0.3,0.2-0.5,0-0.8c-0.2-0.2-0.3-0.5-0.6-0.7
		c-0.3-0.3-0.2-0.6-0.1-1.1c0.4,0.7,0.8,1.2,1.1,1.8h0.1c0-0.2,0-0.4,0-0.6c0-0.2,0-0.4-0.1-0.6c0-0.1,0-0.2-0.1-0.2
		c-0.5-0.2-0.3-0.6-0.3-0.9c0.5-0.1,0.9,0.1,1.1,0.7c0.1-0.2,0.2-0.3,0.3-0.5c0.1,0.3,0.2,0.6,0.3,0.9c0.1,0.3,0.1,0.6,0.5,0.7
		c0.1,0,0.3,0.6,0.3,0.8c-0.1,0.4,0,0.5,0.3,0.7s0.5,0.4,0.4,0.9c-0.1,0-0.2,0-0.3,0.1c0.3,0.6,0.5,1.1-0.1,1.6
		c-0.3-0.2-0.5-0.6-0.3-1s0.1-0.7-0.1-1.1c-0.4-0.8-0.9-1.6-1.3-2.4c-0.1-0.2-0.3-0.3-0.4-0.4l-0.1,0.1c0.1,0.1,0.2,0.3,0.3,0.4
		c0.4,0.6,0.7,1.3,1.1,1.9C43.3,14.7,43.4,15.2,43.2,15.9z M42.1,13.1c-0.1,0.8,0.1,1.2,0.7,1.3C42.6,13.9,42.3,13.5,42.1,13.1z"/>
	<path d="M2.7,13.7c-0.2,0.1-0.4,0.1-0.6,0.2c0.4-0.7,0.7-1.3,1.1-2c0.1,0.2,0.1,0.3,0.2,0.5c0.3-0.6,0.6-1.1,1-1.7
		c0.1-0.1,0.2-0.2,0.3-0.3l0.1,0.1C4.4,11.3,4,12,3.7,12.8s-0.6,1.6-0.9,2.4c0,0,0.1,0,0.1,0.1C3,15.1,3.1,15,3.1,14.8
		c0.5-1.2,1-2.4,1.5-3.7c0.7,0.6,0.7,0.8,0.4,1.6c-0.1,0.2-0.1,0.4-0.2,0.6c0,0,0.1,0,0.1,0.1c0.4-0.5,0.8-1.1,1.2-1.6
		c0.3,0.7,0.2,0.9-0.3,1.3c-0.2,0.2-0.4,0.3-0.5,0.5c0.3,0.9,0.3,0.9-0.5,1.8c0.1-0.3,0.1-0.5,0.2-0.8c-0.7,0-0.7,0-0.8,0.7
		c0.1,0,0.2,0,0.4-0.1c0,0.6-0.1,1.2-0.1,1.8H4.4c-0.1-0.4-0.3-0.8-0.4-1.1c-0.9-0.2-1.4,0.1-2,0.5l-0.1-0.1
		C2.2,15.5,2.5,14.6,2.7,13.7z M3.6,14.9L3.6,14.9c0.4-0.7,0.7-1.3,1-2c0-0.1,0-0.2,0-0.3c-0.1,0.1-0.2,0.1-0.3,0.2
		c-0.2,0.6-0.5,1.1-0.7,1.7C3.5,14.6,3.6,14.8,3.6,14.9z"/>
	<path d="M32.9,6.1c0.3-0.7-0.1-0.9-0.5-1.2c-0.4-0.2-0.8-0.2-1-0.8c0.5,0.2,1,0.4,1.5,0.5c0.2,0.1,0.4,0,0.5,0c0.2,0,0.5,0,0.7,0
		c0-0.6-0.5-0.9-1-0.6c-0.2,0.1-0.4,0.1-0.6,0.2C32.2,3.7,32.7,3,31.7,3l0.1-0.1c0.5-0.2,1-0.4,1.5-0.6c0.1,0,0.2,0,0.3,0.1
		c0.1,0.2,0.2,0.4,0.4,0.7c-0.3,0-0.6,0-0.8,0c0.1,0.2,0.2,0.4,0.3,0.6c0.5,0,1,0.3,1.1-0.5c0.8,0,0.8,0,0.8,1
		c0.6-0.1,1.1,0.1,1.3,0.9C36,5,35.5,4.5,34.8,4.6c0.4,0.7,0.6,0.8,1.4,0.6c0,0.3,0.1,0.6,0.1,0.9c-0.7-0.4-1.4-0.8-2.1-1.1
		c0,0.3,0,0.3,0.7,0.8c0.3,0.2,0.6,0.5,0.9,0.7v0.1c-0.2,0-0.4,0-0.5-0.1C35,6.4,34.8,6.2,34.5,6S34,5.7,33.6,5.9
		C33.4,6.2,33.2,6.1,32.9,6.1z"/>
	<path d="M16.9,0.5c0.9,0.9,1.8,0.1,2.8,0.2c-0.1,0.6-0.1,1.2-0.2,1.7c0,0.1-0.2,0.2-0.3,0.2c-0.1,0.1-0.3,0.1-0.4,0.1
		c-0.5,0-0.8,0.2-0.8,0.7c0,0.2-0.3,0.4-0.5,0.8c-0.2-0.2-0.3-0.3-0.3-0.5c-0.2-0.5-0.6-0.5-1-0.2c-0.2,0.2-0.4,0.1-0.6-0.1
		c-0.3-0.4-0.7-0.7-1.2-1.1c0.5-0.3,0.9-0.5,1.4-0.7c0.4-0.2,0.7-0.4,0.8-0.8C16.7,0.8,16.8,0.7,16.9,0.5z M18.9,2.2
		c-0.1-0.3-0.2-0.6-0.3-0.7c-0.1-0.1-0.5,0-0.6,0.1c-0.1,0.2-0.1,0.6-0.1,0.9C18.3,2.4,18.6,2.3,18.9,2.2z M15.8,2.3
		c0.1,0.3,0.2,0.5,0.3,0.8c0.3-0.1,0.5-0.2,0.7-0.3C16.6,2,16.5,1.9,15.8,2.3z"/>
	<path d="M40.8,10.3C40.5,10,40.2,9.7,40,9.4c0,0,0,0-0.1,0c0,0.2,0,0.3,0.1,0.5c-0.4-0.3-0.8-0.5-1.2-0.7l-0.1,0.1
		c0.3,0.6,0.6,1.2,1,1.9c-0.4-0.2-0.8-0.3-1.1-0.4c-0.1,0-0.1-0.2-0.2-0.3c-0.1-1.3-0.9-2.1-2.1-2.3c0,0,0,0-0.1-0.1
		c0.5,0,0.9,0,1.5,0c-0.2-0.4-0.3-0.8-0.5-1.1l0.1-0.1c0.2,0.3,0.6,0.6,0.7,1c0.3,0.6,0.7,0.7,1.4,0.7c-0.2-0.2-0.3-0.3-0.4-0.5
		c-0.5-0.5-1-1-1.5-1.5c-0.2-0.2-0.2-0.4-0.4-0.6l0.1-0.1c0.6,0.5,1.2,1,1.9,1.5c0-0.3,0-0.5,0.1-0.9c0.4,0.6,0.7,1.1,1.1,1.6
		c-0.3,0-0.4,0-0.7,0c0.3,0.4,0.6,0.7,0.9,1C40.9,9.4,41,9.8,40.8,10.3z"/>
	<path d="M43.2,19.5c0.1,0.3,0.2,0.7,0.3,1c0.2,0.7,0.2,0.7,1,0.7c0.2-0.4-0.3-1,0.2-1.4c0.1,0.4,0.2,0.9,0.4,1.1s0.7,0.2,1.1,0.3
		c0,0.5-0.2,0.9-0.6,1.1c-0.1,0-0.2,0.3-0.2,0.4c0,0.4,0,0.7,0,1.1c0,0-0.1,0-0.1,0.1c-0.1-0.2-0.2-0.5-0.3-0.7s-0.2-0.5-0.2-0.8
		c-0.4,0.1-0.7,0.3-0.7,0.8c0,0.3,0,0.5,0,0.8c0,0.2-0.1,0.3-0.2,0.5h-0.1c-0.1-0.6-0.2-1.2-0.3-1.9c-0.1-0.7-0.2-1.4-0.3-2.2
		C43.1,20.1,43.1,19.8,43.2,19.5L43.2,19.5z"/>
	<path d="M8.5,9.8c-0.3-0.2-0.7-0.4-1-0.6C7.3,9.1,7.2,9.2,7,9.3c-0.2,0.3-0.5,0.6-0.7,0.9c-0.2,0.2-0.4,0.3-0.7,0.4l-0.1-0.1
		c0.3-0.5,0.6-1.1,1-1.6c0.2-0.2,0.2-0.4,0-0.7C6.3,8,6.2,7.7,6,7.4C6.3,7.2,6.6,7,6.8,7c0.3,0,0.5,0.3,0.8,0.4
		C7.9,7.3,8.1,7,8.3,6.8c0.5-0.6,0.5-0.6,1.3-0.3C9.1,6.9,8.7,7.3,8.3,7.7C8.1,7.9,8,8.1,8.2,8.3c0.1,0.2,0.2,0.4,0.3,0.6
		C8.8,9.2,8.7,9.5,8.5,9.8z"/>
	<path d="M3.6,20.6c-0.5-0.1-1-0.2-1.5-0.2c-0.5-0.1-1-0.2-1.6-0.2c0.2-0.5,0.4-1,0.7-1.6C1.5,18.8,1.7,19,2,19.2c0,0,0.1,0,0.1-0.1
		C2,18.7,2,18.4,1.8,18c-0.1-0.4,0-0.6,0.4-0.7c0.1,0,0.2-0.1,0.3-0.1c0,0.5,0,0.9,0,1.3C2.4,19,2.7,19.3,3,19.6
		c0.5-0.6,0.5-0.9-0.1-1.7c0.3-0.1,0.6-0.2,1-0.3C3.8,18.7,3.7,19.6,3.6,20.6z"/>
	<path d="M2.2,30.4C3,31,3.7,30.8,3.9,29.9c0.2,0.4,0.5,0.6,0.7,1c0.1,0.2,0.1,0.4-0.2,0.5c-0.4,0.2-0.7,0.3-1.1,0.5
		C3,32,2.9,32.2,3.1,32.4c0.1,0.2,0.1,0.4,0.2,0.5c0.1,0.1,0.3,0.2,0.5,0.3C3.9,32.9,4,32.7,4,32.4c0-0.2-0.1-0.4-0.1-0.6
		C4,32,4.1,32.1,4.2,32.2c0.1,0.1,0.3,0.1,0.4,0.2c0-0.2,0.1-0.3,0.1-0.5c0-0.1-0.1-0.3-0.2-0.5c0.5,0.2,0.8,1,0.8,1.4
		c-0.1,0.3-0.3,0.5-0.6,0.3c-0.1-0.1-0.2-0.2-0.4-0.3c0.1,0.2,0.2,0.3,0.2,0.5s0,0.6-0.1,0.7c-0.3,0.2-0.5,0-0.7-0.2
		c-0.1-0.2-0.3-0.3-0.3-0.5c-0.3-0.8-0.7-1.7-1-2.5C2.2,30.8,2.2,30.6,2.2,30.4z"/>
	<path d="M1.2,24.1c0-0.4,0-0.8-0.1-1.2c0-0.2-0.1-0.5-0.3-0.6c-0.4-0.3-0.4-0.5-0.2-0.9c0.1-0.1,0.1-0.3,0.2-0.5
		c0.7,0.1,1.4,0.3,2.1,0.5c0.2,0.1,0.4,0.4,0.5,0.5c-0.1,0.1-0.1,0.2-0.2,0.2c-0.5,0.3-0.6,0.6-0.3,1.1c0.1,0.1,0,0.3,0,0.4
		c-0.1,0.2-0.3,0.5-0.5,0.8c-0.1-0.6-0.2-1.1-0.2-1.7c0-0.3-0.2-0.4-0.5-0.3C1.5,22.9,2.1,23.7,1.2,24.1z"/>
	<path d="M38.5,37.9c-0.2,0-0.4,0-0.6,0c0.1-0.3,0.2-0.5,0.3-0.8c0.2-0.3,0.4-0.4,0.6-0.1c0.1,0.1,0.3,0.3,0.4,0.4
		c0.2,0.1,0.4,0.3,0.7,0.4c0.2,0.3,0.1,0.7-0.2,0.9c-0.5,0.4-0.7-0.2-1.1-0.4c-0.4,0.3-0.7,0.7-1.1,1c-0.2,0.2-0.1,0.3,0.1,0.4
		c0.1,0.1,0.4,0.2,0.3,0.3c-0.1,0.2-0.2,0.5-0.4,0.7c-0.1,0.1-0.4,0-0.5-0.1c-0.2-0.1-0.3-0.4-0.5-0.6c-0.2-0.2-0.4-0.3-0.7-0.5
		c0.1-0.2,0.3-0.6,0.6-0.7c0.1-0.1,0.5,0.3,0.8,0.4c0.3-0.3,0.7-0.7,1.1-1.1C38.6,38,38.6,38,38.5,37.9z"/>
	<path d="M10.5,39.7c0.1,0,0.2,0,0.2,0c1,0.2,1,0.2,0.6,1.2c0.4,0.2,0.8,0.5,1.2,0.7c0,0,0.2-0.1,0.2-0.2c0-0.1-0.1-0.2-0.1-0.3
		c0.3,0,0.6,0,0.9,0.1c0.3,0.1,0.4,0.3,0.2,0.5c-0.1,0.2-0.3,0.5-0.4,0.7c0,0.1-0.1,0.2-0.1,0.3c0,0.2-0.1,0.4-0.1,0.4
		c-0.3,0-0.6,0-0.8-0.1c-0.1,0-0.1-0.3-0.1-0.5s0.2-0.5,0.2-0.6c-0.1-0.2-0.4-0.3-0.6-0.4c-0.2-0.1-0.3-0.2-0.5-0.3
		C11.1,41,11,41.1,11,41.4c0,0.1-0.1,0.4-0.2,0.4c-0.3,0-0.5-0.1-0.8-0.2c-0.1,0-0.1-0.3-0.1-0.5c0.1-0.2,0.2-0.4,0.4-0.5
		C10.6,40.3,10.8,40.1,10.5,39.7z"/>
	<path d="M29.2,44.5c-0.1,0.4-0.4,0.6-0.7,0.6c-0.6,0-0.5-0.6-0.6-0.9c-0.5,0.1-1.1,0.2-1.6,0.3c0,0.1,0.1,0.2,0.1,0.3
		c0.1,0.1,0.2,0.4,0.1,0.4c-0.2,0.1-0.5,0.3-0.7,0.3c-0.1,0-0.3-0.2-0.4-0.4s0-0.4,0-0.6c-0.1-0.3-0.2-0.5-0.3-0.9
		c0.2-0.1,0.5-0.3,0.8-0.3c0.6-0.1,0.2,0.6,0.5,0.8c0.4-0.1,1-0.2,1.5-0.2v-0.1c-0.1-0.1-0.3-0.2-0.5-0.4c0.2-0.2,0.5-0.3,0.7-0.5
		c0.2-0.1,0.4-0.1,0.5,0.2c0,0.2,0.1,0.5,0.2,0.7s0.2,0.4,0.3,0.6C29.1,44.5,29.2,44.5,29.2,44.5z"/>
	<path d="M43.2,19.5c-0.3-0.2-0.5-0.3-0.8-0.5c0.4-0.3,0.6-0.5,0.9-0.8c-0.1-0.2-0.2-0.4-0.3-0.7c0.4,0.2,0.8,0.4,1.2,0.5
		c0-0.4,0-0.7,0.1-1h0.1c0.2,0.4,0.4,0.7,0.6,1.1c0.2-0.3,0.3-0.5,0.5-0.9c0.1,0.7,0.1,1.3,0.2,2c-0.2-0.2-0.4-0.3-0.7-0.5
		c0,0.3,0,0.5-0.1,0.8c-0.2-0.2-0.4-0.3-0.7-0.5c-0.1,0.3-0.2,0.6-0.3,0.9C43.5,19.3,43.4,19.3,43.2,19.5L43.2,19.5z"/>
	<path d="M33.6,41.2c0.2,1,0.8,1.3,1.7,1c0.5-0.2,0.7-0.6,0.6-1c-0.1-0.4-0.6-0.6-1.1-0.5c-0.2,0.1-0.5,0.2-0.8,0.3
		c0.1-0.5,0.2-0.8,0.6-0.9c0.3-0.1,0.7-0.2,1-0.2c0.7,0.1,1,0.7,0.8,1.3c-0.3,0.9-1.8,1.7-2.7,1.5C33.3,42.6,33,42.5,33,42
		C32.9,41.7,33.1,41.4,33.6,41.2z"/>
	<path d="M39.2,36.5C39.2,36.5,39.2,36.4,39.2,36.5c0.2-1.3,0.4-1.3,1.3-0.6c0.5,0.4,0.8,0.5,1.1,0.1s0.5-0.8,0.3-1.1
		c-0.2-0.4-0.8-0.5-1.2-0.4c0,0-0.1,0-0.1-0.1c0.1-1.2,0.1-1.2,1.1-0.6c0.7,0.4,0.8,0.8,0.5,1.5c-0.2,0.5-0.6,1-0.9,1.4
		c-0.5,0.5-0.7,0.5-1.3,0.1C39.8,36.6,39.6,36.5,39.2,36.5C39.3,36.4,39.2,36.5,39.2,36.5z"/>
	<path d="M14.6,4c-0.1,0.6-0.4,0.9-0.8,1.1c-0.8,0.4-1.5,1-2.3,1.5c-0.3,0.2-0.6,0.3-1,0.3C11.5,5.5,13,4.7,14.6,4z"/>
	<path d="M15,44.1c0.2,0,0.3-0.1,0.5-0.1c-0.1-0.2-0.2-0.4-0.3-0.5c-0.3-0.3-0.6-0.6-0.8-0.9c-0.1-0.2-0.1-0.4-0.2-0.7
		c0.2,0,0.4-0.1,0.7-0.1c0.1,0,0.3,0.1,0.5,0.2c-0.4,0.4-0.2,0.6,0.1,0.8c0.3,0.3,0.6,0.6,0.8,0.9c0.2,0.3,0.1,0.7-0.3,0.7
		c-0.3,0-0.7-0.1-1-0.2C15,44.2,15,44.2,15,44.1z"/>
	<path d="M23.4,45.7c0.5-0.5,0.5-0.5-0.1-0.8c-0.4-0.2-0.7-0.3-1.1-0.5C22,44.3,22,44,21.8,43.8c0.2-0.1,0.3-0.3,0.5-0.3
		c0.2-0.1,0.3,0,0.6,0c-0.3,0.5,0,0.6,0.3,0.7c0.4,0.2,0.8,0.3,1.1,0.5c0.1,0.1,0.3,0.3,0.3,0.5s-0.2,0.3-0.4,0.4
		C24,45.7,23.7,45.7,23.4,45.7z"/>
	<path d="M9.7,4.9c0.9-0.7,1.8-1.4,2.8-2c0.2-0.2,0.7,0,1,0V3c-0.7,0.5-1.5,1-2.3,1.5c-0.2,0.2-0.5,0.3-0.8,0.4
		C10.3,5,10,5.1,9.8,5.1C9.8,5.1,9.7,5,9.7,4.9z"/>
	<path d="M4,34.7c0.2,0.3,0.4,0.7,0.8,0.5s1-0.3,0.9-1.2c0.3,0.3,0.6,0.5,0.8,0.7c0.1,0.1,0,0.4-0.1,0.5c-0.3,0.3-0.7,0.6-1.1,0.8
		c-0.2,0.1-0.6,0.1-0.7-0.1c-0.3-0.3-0.6-0.7-0.8-1C3.9,34.8,3.9,34.8,4,34.7z"/>
	<path d="M33.2,42.9c0,0.7-0.4,1-1,0.7c-0.3-0.1-0.6-0.3-0.9-0.5c-0.5-0.2-1-0.5-1.4-0.7c0.6-0.2,1.1-0.6,1.7,0
		C32.1,42.8,32.6,43.1,33.2,42.9z"/>
	<path d="M44.5,30.4c-0.2,0.2-0.4,0.4-0.6,0.6c-0.4,0.2-0.8,0.3-1.2,0.5s-0.8,0.4-1.2,0.6c0.2-0.4,0.3-1.1,0.6-1.2
		c0.7-0.3,1.4-0.9,2.3-0.6C44.5,30.3,44.5,30.3,44.5,30.4z"/>
	<path d="M5.4,37.1C6.2,37.3,7,36.8,7,35.9c0.3,0.2,0.5,0.3,0.7,0.5c0.2,0.1,0.2,0.3,0,0.5s-0.4,0.4-0.6,0.5
		c-0.3,0.3-0.8,0.5-0.4,1.1c-0.1,0-0.1,0-0.2,0C6.2,38.1,5.8,37.6,5.4,37.1z"/>
	<path d="M8.5,38.1c0.7-0.1,1.6,0.6,1.7,1.1c0,0.4-0.2,0.6-0.5,0.6s-0.6-0.1-0.9-0.1c-0.5-0.1-0.9-0.2-1.4-0.4
		c-0.1,0-0.2-0.1-0.2-0.1v-0.1c0.2,0,0.5,0.1,0.7,0.1c0.3,0.1,0.6,0.2,0.9,0.2c0.2,0,0.4-0.2,0.6-0.3c-0.1-0.2-0.2-0.4-0.4-0.6
		C9,38.3,8.8,38.2,8.5,38.1z"/>
	<path d="M43,33c0.2-0.1,0.4-0.2,0.5-0.3c0,0,0.1,0,0.1,0.1c-0.2,0.5-0.4,0.9-0.6,1.4c-0.2-0.7-0.5-1.3-0.7-2c0-0.1,0-0.2,0-0.3
		c0.1,0.1,0.2,0.1,0.3,0.2C42.7,32.4,42.8,32.7,43,33z"/>
	<path d="M30.9,44.5c-0.6,0.2-1,0.3-1.5,0.4c0.3-0.7,0.6-1.3,1-2.1c0.1,0.2,0.1,0.3,0.1,0.4c0,0.1-0.1,0.2-0.1,0.3
		C30.2,44.1,30.2,44.1,30.9,44.5z"/>
	<path d="M7.7,39.6c0.5,0.2,1.1,0.4,1.6,0.7c0.1,0,0.1,0.2,0.2,0.3c-0.1,0.1-0.2,0.2-0.3,0.2s-0.3,0-0.4-0.1
		C8.5,40.4,8.1,40,7.7,39.6L7.7,39.6z"/>
	<path d="M14.6,44.1c-0.4-0.2-0.7-0.3-0.9-0.5c-0.2-0.1-0.2-0.3,0.1-0.4c0.3-0.2,0.7,0.1,0.8,0.5C14.5,43.8,14.6,43.9,14.6,44.1z"/>
	<path d="M23,45.7c-0.4-0.1-0.7-0.1-1-0.2c-0.1,0-0.2-0.1-0.2-0.2c0-0.1,0.1-0.2,0.1-0.3C22.4,44.8,22.7,45,23,45.7z"/>
	<path d="M23.2,43.5c0.3,0,0.6-0.1,0.9,0c0.1,0,0.3,0.1,0.4,0.2c0,0.1-0.1,0.3-0.1,0.3c-0.2,0-0.4,0-0.5,0
		C23.7,43.9,23.5,43.7,23.2,43.5z"/>
	<path d="M15.6,42.1c0.3,0.1,0.6,0.2,0.8,0.3c0.1,0.1,0.2,0.2,0.3,0.3c-0.1,0.1-0.1,0.2-0.2,0.2c-0.2,0-0.4,0-0.5-0.1
		C15.9,42.6,15.8,42.4,15.6,42.1z"/>
	<path d="M23.5,1.6c-0.5,0.4-0.6,0.4-1,0C22.8,1.1,23,1.1,23.5,1.6z"/>
	<path d="M44.1,27c-0.3-0.5-0.2-0.7,0.1-1C44.5,26.5,44.5,26.7,44.1,27z"/>
	<path d="M19.6,44.3c-0.3,0.2-0.6,0.2-0.8-0.1C19.1,43.8,19.3,43.9,19.6,44.3z"/>
	<path d="M31.4,43.6c-0.3,0.1-0.6,0.2-0.8,0.3c0.2-0.4,0.5-0.5,0.8-0.4C31.4,43.5,31.4,43.5,31.4,43.6z"/>
	<path d="M43,32.5c-0.2-0.4,0-0.8,0.4-1C43.3,31.8,43.2,32.1,43,32.5z"/>
	<path d="M59.5,23.5h5.8c0.7-1.2,1.5-2.8,2.4-4.6l0.4,0.2c-0.2,0.6-0.8,1.8-2,3.8c-0.1,0.3-0.2,0.5-0.3,0.7h4.2v0.4H59.5V23.5z
		 M64.1,15.1l0.4-0.1l0.8,2.8h4.2v0.4h-9.5v-0.4h4.8L64.1,15.1z M61.1,36.7V26.5h7.2v10.1H68V35h-6.4v1.7H61.1z M61.3,19.2l0.4-0.2
		c0.6,1.1,1.2,2.3,1.9,3.6l-0.4,0.2c-0.2-0.3-0.5-1-1-2C61.7,19.9,61.4,19.4,61.3,19.2z M61.6,26.8v3.8H68v-3.8H61.6z M61.6,31.1
		v3.5H68v-3.5H61.6z M74.2,18v-0.8h-3.3v-0.4h9.3c-0.1,2.4-0.1,4-0.2,4.9c0,2-1,2.9-2.9,2.7c-0.3,0-0.7,0-1.4-0.1
		c-0.4,0-0.6,0-0.7,0l0.1-0.5c0.1,0,0.2,0,0.5,0c0.7,0.1,1.2,0.1,1.5,0.1c1.7,0.2,2.5-0.6,2.4-2.3c0.1-1.2,0.2-2.7,0.2-4.5h-5.1v0.9
		c0,3.4-1.3,6-4,7.8l-0.3-0.3C72.9,23.8,74.2,21.3,74.2,18z M71.8,27.4H80v9.2h-0.5v-1.8h-7.2v1.8h-0.5V27.4z M72.3,27.8v6.6h7.2
		v-6.6H72.3z"/>
	<path d="M83.6,23.3c3.1-2.5,5.5-5.3,7.3-8.3l0.4,0.2c-0.9,1.4-1.8,2.7-2.7,3.8v8.3h-0.5v-7.7c-1.5,1.6-2.9,3-4.2,4L83.6,23.3z
		 M94.2,27h0.5v3.2h10.6v0.5H94.7v6h-0.5v-6H83.6v-0.5h10.6V27z M90.4,23c1.9-0.5,3.6-1,5.3-1.6V15h0.5v6.2c3.1-1.1,5.9-2.5,8.3-4.1
		l0.3,0.5c-2.8,1.8-5.6,3.1-8.5,4.1v1.9c-0.1,1.6,0.8,2.4,2.5,2.3h3c2,0.1,3-0.6,3-1.9c0.1-0.2,0.1-0.7,0.2-1.3
		c0.1-0.6,0.1-1,0.1-1.2h0.4c0,0.8-0.1,1.6-0.2,2.6c-0.1,1.6-1.3,2.3-3.5,2.3h-3c-2.1,0.1-3.1-0.9-3-2.8v-1.7
		c-0.8,0.3-2.1,0.7-3.8,1.2c-0.6,0.2-1,0.3-1.3,0.4L90.4,23z"/>
	<path d="M107.7,36.3c4.7-1.9,8.2-3.8,10.6-5.9c-3-2.6-5.1-6-6.2-10.3H108v-0.5h21v0.5h-4.2c-1,4.3-2.9,7.8-5.7,10.3
		c2.5,2.1,5.9,3.9,10.2,5.4l-0.2,0.5c-4.9-1.9-8.3-3.8-10.4-5.6c-2.4,2.1-6,4.1-10.8,6L107.7,36.3z M118.7,30.1
		c2.7-2.5,4.6-5.8,5.6-10h-11.6C113.8,24.3,115.8,27.6,118.7,30.1z M116.8,15.2l0.4-0.3l2.9,3.8l-0.4,0.3L116.8,15.2z"/>
	<path d="M149.6,24l-6.5,3.8v1.4h10.3v0.5h-10.3v4c0.1,1.6-0.7,2.4-2.5,2.3h-3v-0.4h3c1.5,0.1,2.2-0.5,2.1-1.9v-4h-11v-0.5h11v-1.7
		l6.1-3.6h-12.9v-0.5h13.8V24z M132.8,19.9h14c1.3-1.5,2.5-3,3.6-4.6l0.4,0.3c-0.9,1.3-2,2.7-3.3,4.3h5.1v3.9H152v-3.6h-18.8v3.9
		h-0.5V19.9z M134.3,15.7l0.3-0.3l2.9,3.5l-0.4,0.3L134.3,15.7z M141.3,15.1l0.4-0.2l2,3.9l-0.4,0.2L141.3,15.1z"/>
	<path d="M163,20v0.5c-0.8,1.7-1.8,3.2-2.8,4.5v11.7h-0.5V25.4c-1.1,1.4-2.5,2.7-4,3.9l-0.3-0.4c2.9-2.3,5.3-5.2,7.1-8.5h-6.5V20
		H163z M158.7,15.2l0.4-0.2l2.3,3.6l-0.4,0.3L158.7,15.2z M161,25.8l0.4-0.4l3.4,3.5l-0.4,0.3L161,25.8z M170.1,15h0.5v7.9h6v0.5h-6
		v10.9h6.9v0.3h-14.6v-0.3h7.2V23.4h-5.9v-0.5h5.9V15z"/>
</g>
</svg>
