<?xml version="1.0" encoding="utf-8"?>
<!-- Generator: Adobe Illustrator 18.0.0, SVG Export Plug-In . SVG Version: 6.00 Build 0)  -->
<!DOCTYPE svg PUBLIC "-//W3C//DTD SVG 1.1//EN" "http://www.w3.org/Graphics/SVG/1.1/DTD/svg11.dtd">
<svg version="1.1" id="img-empty" xmlns="http://www.w3.org/2000/svg" xmlns:xlink="http://www.w3.org/1999/xlink" x="0px" y="0px"
	 viewBox="0 0 500 378" xml:space="preserve">
<g>
	<path fill="#464A4B" d="M249.5,377.9c-81.8,0-163.5,0-245.3,0.1c-3.3,0-4.2-0.5-4.2-4C0.1,250.8,0.2,127.5,0,4.3C0,0.4,1.1,0,4.4,0
		c163.7,0.1,327.4,0.1,491.1,0c3.4,0,4.4,0.5,4.4,4.3c-0.2,123.2-0.2,246.5,0,369.7c0,3.6-0.9,4-4.2,4
		C413.7,377.9,331.6,377.9,249.5,377.9z"/>
	<path fill="#3E4243" d="M250.4,269c-34.5,0-68.9,0-103.4,0c-8.3,0-8.9-0.6-8.9-8.7c0-47.1,0-94.3,0-141.4c0-8.1,0.6-8.7,8.9-8.7
		c69.1,0,138.3,0,207.4,0c8,0,8.6,0.7,8.6,8.5c0,47.3,0,94.6,0,141.9c0,7.8-0.7,8.5-8.6,8.5C319.7,269,285,269,250.4,269z
		 M250.7,121.1c-31,0-62,0-92.9,0c-8,0-8.6,0.7-8.6,8.5c0,40,0,79.9,0,120c0,7.8,0.7,8.5,8.6,8.5c61.8,0,123.6,0,185.4,0
		c8.3,0,8.9-0.6,8.9-8.7c0-39.8,0-79.6,0-119.5c0-8.1-0.6-8.7-8.9-8.7C312.3,121.1,281.5,121.1,250.7,121.1z"/>
	<path fill="#3E4243" d="M341.5,231.4c-0.6,2.3-1.6,4.4-3.9,5.5s-3.7-0.7-5.2-1.9c-12.5-11.2-25.1-22.3-37.6-33.6
		c-3.3-2.9-5.9-2.9-9,0.3c-6.5,6.7-13.1,13.3-19.7,19.8c-4,3.9-5.7,3.9-9.3-0.4c-10-11.6-20-23.2-30-34.8c-4.5-5.3-5.3-5.4-10.7-0.6
		c-12.3,10.9-24.6,21.8-36.9,32.8c-2.4,2.1-5,4-7.1,6.2c-2.6,2.6-4.9,3.2-7.6,0.3c-2.8-2.9-3.4-5.6-0.2-8.6
		c6.4-5.6,12.7-11.2,19.1-16.9c11.1-9.8,22.2-19.6,33.2-29.5c5.6-5,6.2-5.2,11.1,0.2c10.2,11.4,20.2,23,30.3,34.5
		c3.9,4.4,4.4,4.4,8.6,0.3c6.5-6.5,13-12.8,19.4-19.5c2.8-2.9,5-2.8,8-0.1c14.2,12.8,28.5,25.4,42.9,38.1
		C339.2,225.6,341.8,227.6,341.5,231.4z"/>
	<path fill="#3E4243" d="M312.4,133.1c12.5,0.1,22.6,10.2,22.5,22.6c-0.1,12.2-10.4,22.3-22.8,22.3c-12.5,0-22.2-10.1-22-22.9
		C290.3,142.5,299.9,133,312.4,133.1z M312.4,166.6c5.8-0.1,11.1-5.5,11-11.4c-0.1-5.7-5.3-11-10.8-11c-5.8-0.1-11.4,5.5-11.2,11.2
		C301.5,161.5,306.6,166.7,312.4,166.6z"/>
</g>
</svg>
